<mxfile host="app.diagrams.net" agent="Mozilla/5.0 (Windows NT 10.0; Win64; x64) AppleWebKit/537.36 (KHTML, like Gecko) Chrome/132.0.0.0 Safari/537.36 OPR/117.0.0.0" version="26.2.12">
  <diagram name="Page-1" id="72H-aFK_YJp_VzSMHIUj">
    <mxGraphModel grid="1" page="1" gridSize="10" guides="1" tooltips="1" connect="1" arrows="1" fold="1" pageScale="1" pageWidth="850" pageHeight="1100" math="0" shadow="0">
      <root>
        <mxCell id="0" />
        <mxCell id="1" parent="0" />
        <mxCell id="0RyC5TD8BSZk8C04t_cE-4" style="edgeStyle=orthogonalEdgeStyle;rounded=0;orthogonalLoop=1;jettySize=auto;html=1;" edge="1" parent="1" source="0RyC5TD8BSZk8C04t_cE-1" target="0RyC5TD8BSZk8C04t_cE-3">
          <mxGeometry relative="1" as="geometry" />
        </mxCell>
        <mxCell id="0RyC5TD8BSZk8C04t_cE-1" value="Начало" style="ellipse;whiteSpace=wrap;html=1;fillColor=none;" vertex="1" parent="1">
          <mxGeometry x="378" y="20" width="95" height="60" as="geometry" />
        </mxCell>
        <mxCell id="0RyC5TD8BSZk8C04t_cE-7" style="edgeStyle=orthogonalEdgeStyle;rounded=0;orthogonalLoop=1;jettySize=auto;html=1;entryX=0.5;entryY=0;entryDx=0;entryDy=0;" edge="1" parent="1" source="0RyC5TD8BSZk8C04t_cE-3" target="0RyC5TD8BSZk8C04t_cE-6">
          <mxGeometry relative="1" as="geometry" />
        </mxCell>
        <mxCell id="0RyC5TD8BSZk8C04t_cE-25" style="edgeStyle=orthogonalEdgeStyle;rounded=0;orthogonalLoop=1;jettySize=auto;html=1;entryX=0.5;entryY=0;entryDx=0;entryDy=0;" edge="1" parent="1" source="0RyC5TD8BSZk8C04t_cE-3" target="0RyC5TD8BSZk8C04t_cE-8">
          <mxGeometry relative="1" as="geometry">
            <Array as="points">
              <mxPoint x="300" y="150" />
              <mxPoint x="300" y="190" />
            </Array>
          </mxGeometry>
        </mxCell>
        <mxCell id="0RyC5TD8BSZk8C04t_cE-3" value="Подаден ли е аргументът &quot;-l&quot;?" style="rhombus;whiteSpace=wrap;html=1;fillColor=none;" vertex="1" parent="1">
          <mxGeometry x="358.5" y="100" width="134" height="110" as="geometry" />
        </mxCell>
        <mxCell id="0RyC5TD8BSZk8C04t_cE-24" style="edgeStyle=orthogonalEdgeStyle;rounded=0;orthogonalLoop=1;jettySize=auto;html=1;entryX=0.5;entryY=0;entryDx=0;entryDy=0;exitX=0.5;exitY=1;exitDx=0;exitDy=0;" edge="1" parent="1" source="0RyC5TD8BSZk8C04t_cE-6" target="0RyC5TD8BSZk8C04t_cE-22">
          <mxGeometry relative="1" as="geometry">
            <Array as="points">
              <mxPoint x="556" y="780" />
              <mxPoint x="426" y="780" />
            </Array>
          </mxGeometry>
        </mxCell>
        <mxCell id="0RyC5TD8BSZk8C04t_cE-6" value="Изведи името&amp;nbsp;&lt;div&gt;на файла&lt;/div&gt;" style="shape=parallelogram;perimeter=parallelogramPerimeter;whiteSpace=wrap;html=1;fixedSize=1;fillColor=none;" vertex="1" parent="1">
          <mxGeometry x="493" y="210" width="127" height="60" as="geometry" />
        </mxCell>
        <mxCell id="0RyC5TD8BSZk8C04t_cE-15" style="edgeStyle=orthogonalEdgeStyle;rounded=0;orthogonalLoop=1;jettySize=auto;html=1;entryX=0.5;entryY=0;entryDx=0;entryDy=0;" edge="1" parent="1" source="0RyC5TD8BSZk8C04t_cE-8" target="0RyC5TD8BSZk8C04t_cE-9">
          <mxGeometry relative="1" as="geometry" />
        </mxCell>
        <mxCell id="0RyC5TD8BSZk8C04t_cE-8" value="Изведи типа&lt;div&gt;на файла&lt;/div&gt;" style="shape=parallelogram;perimeter=parallelogramPerimeter;whiteSpace=wrap;html=1;fixedSize=1;fillColor=none;" vertex="1" parent="1">
          <mxGeometry x="239" y="210" width="120" height="60" as="geometry" />
        </mxCell>
        <mxCell id="0RyC5TD8BSZk8C04t_cE-16" style="edgeStyle=orthogonalEdgeStyle;rounded=0;orthogonalLoop=1;jettySize=auto;html=1;entryX=0.5;entryY=0;entryDx=0;entryDy=0;" edge="1" parent="1" source="0RyC5TD8BSZk8C04t_cE-9" target="0RyC5TD8BSZk8C04t_cE-10">
          <mxGeometry relative="1" as="geometry" />
        </mxCell>
        <mxCell id="0RyC5TD8BSZk8C04t_cE-9" value="Изведи правата върху файла" style="shape=parallelogram;perimeter=parallelogramPerimeter;whiteSpace=wrap;html=1;fixedSize=1;fillColor=none;" vertex="1" parent="1">
          <mxGeometry x="239" y="300" width="120" height="60" as="geometry" />
        </mxCell>
        <mxCell id="0RyC5TD8BSZk8C04t_cE-17" style="edgeStyle=orthogonalEdgeStyle;rounded=0;orthogonalLoop=1;jettySize=auto;html=1;entryX=0.5;entryY=0;entryDx=0;entryDy=0;" edge="1" parent="1" source="0RyC5TD8BSZk8C04t_cE-10" target="0RyC5TD8BSZk8C04t_cE-11">
          <mxGeometry relative="1" as="geometry" />
        </mxCell>
        <mxCell id="0RyC5TD8BSZk8C04t_cE-10" value="Изведи името&lt;div&gt;на собственика&lt;/div&gt;&lt;div&gt;на файла&lt;/div&gt;" style="shape=parallelogram;perimeter=parallelogramPerimeter;whiteSpace=wrap;html=1;fixedSize=1;fillColor=none;" vertex="1" parent="1">
          <mxGeometry x="239" y="390" width="120" height="60" as="geometry" />
        </mxCell>
        <mxCell id="0RyC5TD8BSZk8C04t_cE-18" style="edgeStyle=orthogonalEdgeStyle;rounded=0;orthogonalLoop=1;jettySize=auto;html=1;" edge="1" parent="1" source="0RyC5TD8BSZk8C04t_cE-11" target="0RyC5TD8BSZk8C04t_cE-12">
          <mxGeometry relative="1" as="geometry" />
        </mxCell>
        <mxCell id="0RyC5TD8BSZk8C04t_cE-11" value="Изведи името&lt;div&gt;на групата&lt;/div&gt;" style="shape=parallelogram;perimeter=parallelogramPerimeter;whiteSpace=wrap;html=1;fixedSize=1;fillColor=none;" vertex="1" parent="1">
          <mxGeometry x="239" y="480" width="120" height="60" as="geometry" />
        </mxCell>
        <mxCell id="0RyC5TD8BSZk8C04t_cE-19" style="edgeStyle=orthogonalEdgeStyle;rounded=0;orthogonalLoop=1;jettySize=auto;html=1;entryX=0.5;entryY=0;entryDx=0;entryDy=0;" edge="1" parent="1" source="0RyC5TD8BSZk8C04t_cE-12" target="0RyC5TD8BSZk8C04t_cE-13">
          <mxGeometry relative="1" as="geometry" />
        </mxCell>
        <mxCell id="0RyC5TD8BSZk8C04t_cE-12" value="Изведи&lt;div&gt;размера&lt;div&gt;на файла&lt;/div&gt;&lt;/div&gt;" style="shape=parallelogram;perimeter=parallelogramPerimeter;whiteSpace=wrap;html=1;fixedSize=1;fillColor=none;" vertex="1" parent="1">
          <mxGeometry x="239" y="570" width="120" height="60" as="geometry" />
        </mxCell>
        <mxCell id="0RyC5TD8BSZk8C04t_cE-20" style="edgeStyle=orthogonalEdgeStyle;rounded=0;orthogonalLoop=1;jettySize=auto;html=1;" edge="1" parent="1" source="0RyC5TD8BSZk8C04t_cE-13" target="0RyC5TD8BSZk8C04t_cE-14">
          <mxGeometry relative="1" as="geometry" />
        </mxCell>
        <mxCell id="0RyC5TD8BSZk8C04t_cE-13" value="Изведи датата и&amp;nbsp;&lt;div&gt;часа на последната&amp;nbsp;&lt;/div&gt;&lt;div&gt;промяна на файла&lt;/div&gt;" style="shape=parallelogram;perimeter=parallelogramPerimeter;whiteSpace=wrap;html=1;fixedSize=1;fillColor=none;" vertex="1" parent="1">
          <mxGeometry x="220.75" y="660" width="156.5" height="60" as="geometry" />
        </mxCell>
        <mxCell id="0RyC5TD8BSZk8C04t_cE-23" style="edgeStyle=orthogonalEdgeStyle;rounded=0;orthogonalLoop=1;jettySize=auto;html=1;entryX=0.5;entryY=0;entryDx=0;entryDy=0;" edge="1" parent="1" source="0RyC5TD8BSZk8C04t_cE-14" target="0RyC5TD8BSZk8C04t_cE-22">
          <mxGeometry relative="1" as="geometry" />
        </mxCell>
        <mxCell id="0RyC5TD8BSZk8C04t_cE-14" value="Изведи името&amp;nbsp;&lt;div&gt;на файла&lt;/div&gt;" style="shape=parallelogram;perimeter=parallelogramPerimeter;whiteSpace=wrap;html=1;fixedSize=1;fillColor=none;" vertex="1" parent="1">
          <mxGeometry x="235.5" y="750" width="127" height="60" as="geometry" />
        </mxCell>
        <mxCell id="0RyC5TD8BSZk8C04t_cE-22" value="Край" style="ellipse;whiteSpace=wrap;html=1;fillColor=none;" vertex="1" parent="1">
          <mxGeometry x="378" y="820" width="95" height="60" as="geometry" />
        </mxCell>
        <mxCell id="0RyC5TD8BSZk8C04t_cE-26" value="Не" style="text;html=1;align=center;verticalAlign=middle;resizable=0;points=[];autosize=1;strokeColor=none;fillColor=none;" vertex="1" parent="1">
          <mxGeometry x="473" y="120" width="40" height="30" as="geometry" />
        </mxCell>
        <mxCell id="0RyC5TD8BSZk8C04t_cE-28" value="Да" style="text;html=1;align=center;verticalAlign=middle;resizable=0;points=[];autosize=1;strokeColor=none;fillColor=none;" vertex="1" parent="1">
          <mxGeometry x="330" y="120" width="40" height="30" as="geometry" />
        </mxCell>
      </root>
    </mxGraphModel>
  </diagram>
</mxfile>
